# xmcd CD database file
#
# Track frame offsets:
#	150
#	15789
#	34704
#	46707
#	63466
#	80269
#	95012
#	107714
#	120694
#	140196
#	157553
#
# Disc length: 2376 seconds
#
# Revision: 1
# Processed by: cddbd v1.5.2PL0 Copyright (c) Steve Scherf et al.
# Submitted via: NeoAudio 9.9.9
#
DISCID=7d09460b
DTITLE=jos slijpen workshop sept/okt o6 - jos slijpen workshop sept/okt 06
DYEAR=2006
DGENRE=Country
TTITLE0=Dixie falls
TTITLE1=Legend in my heart
TTITLE2=Thanks A Lot
TTITLE3=Leaving of liverpool y
TTITLE4=Here I am
TTITLE5=Solo Humano
TTITLE6=Not That Lonely Yet
TTITLE7=Long Gone
TTITLE8=In my heart
TTITLE9=Beer Goggles
TTITLE10=This is us
EXTD=YEAR: 2006
EXTT0=
EXTT1=
EXTT2=
EXTT3=
EXTT4=
EXTT5=
EXTT6=
EXTT7=
EXTT8=
EXTT9=
EXTT10=
PLAYORDER=
